<?xml version="1.0" standalone="no"?>
<!DOCTYPE svg PUBLIC "-//W3C//DTD SVG 20010904//EN"
 "http://www.w3.org/TR/2001/REC-SVG-20010904/DTD/svg10.dtd">
<svg version="1.0" xmlns="http://www.w3.org/2000/svg"
 width="300.000000pt" height="400.000000pt" viewBox="0 0 300.000000 400.000000"
 preserveAspectRatio="xMidYMid meet">

<g transform="translate(0.000000,400.000000) scale(0.100000,-0.100000)"
fill="#000000" stroke="none">
<path d="M933 2872 c-73 -103 -144 -203 -158 -223 l-26 -37 52 -98 c41 -78
152 -284 176 -326 14 -25 -15 3 -83 80 -42 48 -97 109 -122 135 l-44 48 -171
-30 -170 -31 -55 25 -54 25 7 -27 c6 -25 153 -373 161 -382 3 -3 220 13 464
34 l55 5 -90 -34 c-49 -18 -216 -77 -370 -130 -154 -54 -287 -100 -295 -103
-11 -4 -7 -9 15 -19 17 -7 133 -58 260 -112 l230 -100 61 92 c33 50 100 153
148 228 48 76 91 140 95 142 4 3 -15 -99 -41 -225 l-49 -230 56 -78 c30 -44
55 -82 55 -87 0 -4 -11 -22 -25 -40 -14 -18 -25 -37 -25 -42 0 -6 55 -51 123
-100 67 -50 129 -104 138 -119 16 -26 43 -66 206 -301 36 -51 68 -92 73 -90
10 4 140 159 140 168 0 3 -12 7 -27 8 -14 1 -29 4 -31 7 -3 2 44 128 104 280
l109 275 87 45 c48 25 89 49 91 53 3 4 -6 50 -19 102 -13 52 -23 105 -24 117
0 23 86 250 101 267 4 5 37 -2 76 -15 l68 -25 83 70 c45 38 82 73 82 77 0 3
-33 20 -74 37 l-74 30 -54 -47 c-95 -83 -92 -82 -68 -20 54 136 53 135 105
142 65 9 185 9 185 0 0 -5 20 -127 45 -272 25 -145 45 -272 45 -282 0 -16 -7
-15 -87 12 -47 16 -88 27 -90 26 -1 -2 44 -50 102 -106 l105 -104 11 29 c26
67 111 291 119 314 10 32 90 253 124 345 14 38 22 73 18 77 -14 14 -856 517
-860 513 -4 -4 30 -231 81 -543 23 -137 30 -205 23 -207 -6 -2 -69 -6 -141
-10 -71 -3 -186 -10 -255 -15 -100 -7 -168 -4 -340 12 -118 11 -217 21 -219
23 -2 2 72 87 163 189 l166 186 -52 175 c-28 97 -55 172 -59 168 -4 -5 -55
-143 -114 -308 -59 -165 -112 -309 -117 -320 -8 -19 -6 189 9 658 3 114 4 207
2 207 -2 -1 -63 -85 -136 -188z m114 -54 c-4 -95 -10 -285 -13 -421 -4 -136
-11 -244 -15 -240 -18 18 -240 447 -237 457 3 13 261 375 267 376 2 0 1 -78
-2 -172z m1081 -120 c72 -44 132 -83 132 -87 0 -4 -32 -83 -71 -176 -38 -94
-82 -200 -97 -237 -28 -70 -42 -85 -42 -45 0 20 -26 184 -80 511 -11 65 -20
123 -20 128 0 11 12 4 178 -94z m-758 -206 c0 -14 -291 -344 -297 -338 -4 3
177 520 213 610 5 14 18 -21 46 -120 21 -76 38 -145 38 -152z m1143 -25 l208
-124 -98 -6 c-54 -4 -178 -10 -275 -13 l-178 -7 58 142 c31 77 62 139 67 137
6 -2 104 -60 218 -129z m-1710 -124 c138 -161 176 -207 173 -210 -2 -2 -115
47 -252 108 -137 61 -260 116 -274 122 -22 9 -18 11 48 23 39 8 105 20 145 28
39 8 75 14 79 15 3 1 40 -38 81 -86z m-138 -98 c171 -76 314 -142 319 -146 6
-5 -4 -9 -25 -9 -18 -1 -137 -9 -264 -19 -126 -11 -233 -16 -236 -13 -5 6
-113 258 -137 321 -8 21 2 17 343 -134z m2085 56 c0 -5 -32 -96 -71 -202 -39
-107 -89 -246 -111 -308 -32 -88 -43 -110 -49 -95 -4 10 -22 105 -39 209 -17
105 -37 225 -45 268 -24 127 -25 125 43 130 122 7 272 7 272 -2z m-472 -127
l37 -16 -80 -24 c-44 -13 -84 -24 -90 -24 -11 0 76 79 88 80 4 0 24 -7 45 -16z
m-15 -94 l-51 -50 -46 17 c-25 9 -43 20 -40 23 6 5 163 57 179 59 6 0 -13 -22
-42 -49z m-960 -21 c86 -7 157 -15 157 -19 0 -11 -239 -365 -247 -365 -4 0
-10 11 -14 25 -4 14 -34 102 -67 197 -33 94 -57 174 -54 178 4 3 20 4 37 1 16
-3 101 -11 188 -17z m718 -36 c-56 -141 -74 -184 -76 -181 -3 3 -34 122 -49
190 -6 26 -5 27 46 31 29 2 63 4 75 5 l23 2 -19 -47z m-171 27 c0 -9 -323
-677 -332 -686 -6 -5 -18 324 -19 526 l-1 145 123 7 c124 7 207 13 222 16 4 1
7 -2 7 -8z m-938 -135 c-48 -74 -112 -174 -143 -223 -33 -51 -62 -86 -70 -84
-41 8 -436 188 -426 193 7 4 66 25 132 48 66 23 219 77 340 120 121 44 228 79
237 80 12 1 -7 -36 -70 -134z m224 -93 c31 -90 54 -165 51 -168 -6 -6 -195
-53 -214 -54 -19 0 -17 18 27 220 53 242 50 232 66 195 7 -17 39 -103 70 -193z
m766 76 l26 -112 -62 -154 -61 -154 -134 -70 c-73 -39 -132 -67 -129 -62 2 5
76 156 163 337 88 180 162 327 165 327 4 0 18 -50 32 -112z m-426 10 c7 -152
26 -1049 22 -1053 -4 -5 -22 44 -194 543 l-83 243 121 180 c67 98 123 177 125
175 3 -2 6 -42 9 -88z m483 -245 c7 -32 15 -65 17 -75 4 -12 -13 -26 -62 -52
-37 -20 -69 -35 -70 -33 -5 6 89 226 96 222 3 -2 12 -30 19 -62z m506 37 c28
-11 38 -28 33 -58 -3 -17 -11 -13 -58 30 -57 52 -52 57 25 28z m-1345 -170
c-33 -49 -62 -90 -64 -90 -3 0 -25 29 -50 65 -30 44 -42 67 -33 70 16 7 179
43 195 44 7 1 -15 -39 -48 -89z m186 -199 c52 -150 94 -275 91 -277 -2 -2 -38
22 -80 54 -64 47 -91 78 -162 180 -47 68 -85 126 -85 128 0 5 101 155 123 182
5 7 11 11 13 9 2 -2 47 -126 100 -276z m474 92 c0 -4 -46 -124 -102 -265 -98
-247 -103 -258 -128 -258 l-27 0 -7 191 c-5 124 -4 195 3 202 11 11 242 135
254 136 4 1 7 -2 7 -6z m-667 -110 c29 -43 58 -85 62 -93 8 -13 -31 13 -132
88 l-33 24 21 29 c11 16 22 29 24 29 2 0 28 -35 58 -77z m274 -283 c26 -19 38
-41 63 -113 16 -50 29 -92 27 -93 -3 -3 -180 253 -186 270 -2 6 11 -1 30 -15
19 -14 48 -36 66 -49z m173 -165 c0 -12 -29 -75 -34 -75 -4 0 -6 18 -6 40 0
33 3 40 20 40 11 0 20 -2 20 -5z m40 -26 c-12 -16 -24 -28 -26 -26 -9 9 20 57
33 57 11 0 9 -8 -7 -31z"/>
<path d="M664 819 c-13 -21 -24 -44 -24 -51 0 -7 6 -4 12 7 6 11 12 21 14 23
1 2 12 -1 23 -8 13 -6 21 -7 21 -1 0 5 -9 12 -20 16 -16 5 -18 9 -8 25 12 18
13 18 39 -1 15 -11 30 -16 32 -12 3 5 -11 15 -30 24 l-34 17 -25 -39z"/>
<path d="M2237 843 c-4 -3 -7 -17 -7 -31 0 -23 2 -24 41 -18 38 6 40 5 37 -16
-4 -28 -38 -38 -38 -12 0 14 -3 15 -12 6 -20 -20 6 -38 39 -26 20 7 28 16 28
34 0 23 -3 25 -43 23 -39 -2 -41 0 -31 18 6 12 17 18 25 15 8 -3 14 -1 14 4 0
11 -43 14 -53 3z"/>
<path d="M790 750 c-24 -47 -26 -67 -4 -46 17 18 44 21 44 6 0 -5 5 -10 11
-10 5 0 7 5 4 10 -3 6 1 10 9 10 27 0 19 45 -9 58 -35 16 -32 17 -55 -28z m60
10 c11 -7 12 -12 3 -21 -15 -15 -43 -5 -43 16 0 17 18 19 40 5z"/>
<path d="M2160 749 c16 -31 18 -44 10 -54 -16 -19 -35 -9 -56 31 -10 19 -22
34 -26 34 -4 0 3 -19 16 -42 17 -31 31 -43 46 -43 37 0 47 27 25 74 -10 23
-22 41 -27 41 -4 0 1 -18 12 -41z"/>
<path d="M2010 728 c0 -3 7 -24 15 -47 8 -23 14 -44 14 -48 0 -4 4 -9 10 -11
11 -4 -15 86 -30 103 -5 5 -9 6 -9 3z"/>
<path d="M942 675 c-29 -40 -31 -45 -13 -45 11 0 26 -7 35 -15 20 -21 26 -19
26 10 0 17 -4 23 -15 19 -24 -9 -37 5 -25 27 6 11 15 17 19 14 5 -2 11 4 14
15 8 31 -5 23 -41 -25z"/>
<path d="M1950 703 c0 -5 16 -21 35 -36 43 -35 46 -25 4 14 -33 30 -39 34 -39
22z"/>
<path d="M820 676 c0 -9 5 -16 10 -16 6 0 10 4 10 9 0 6 -4 13 -10 16 -5 3
-10 -1 -10 -9z"/>
<path d="M1086 682 c-3 -5 1 -27 9 -48 l14 -39 -6 45 c-7 51 -8 55 -17 42z"/>
<path d="M1840 671 c-26 -8 -27 -12 -16 -70 9 -47 10 -48 50 -43 23 3 36 10
36 18 0 11 -4 12 -19 4 -31 -16 -51 -12 -51 10 0 13 7 20 20 20 11 0 20 5 20
10 0 6 -10 8 -24 4 -21 -5 -24 -3 -19 15 3 12 13 21 24 21 11 0 19 5 19 10 0
11 -4 11 -40 1z"/>
<path d="M1140 644 c-6 -14 -10 -31 -10 -38 0 -6 -5 -17 -12 -24 -8 -8 -9 -15
-2 -22 6 -6 15 11 25 50 16 62 16 79 -1 34z"/>
<path d="M1960 668 c0 -17 23 -68 31 -68 5 0 2 15 -7 33 -18 34 -24 44 -24 35z"/>
<path d="M1725 608 c-7 -48 -8 -51 -22 -32 -8 10 -21 33 -29 49 -7 17 -13 24
-14 16 0 -18 48 -101 59 -101 4 0 8 6 8 13 0 6 4 33 8 60 4 26 5 47 2 47 -3 0
-8 -23 -12 -52z"/>
<path d="M1070 649 c0 -2 -4 -19 -9 -37 -5 -17 -6 -32 -2 -32 10 0 24 61 16
68 -3 3 -5 3 -5 1z"/>
<path d="M1227 643 c-4 -3 -7 -16 -6 -27 0 -19 1 -19 10 3 10 24 8 36 -4 24z"/>
<path d="M1260 612 c-43 -33 -50 -42 -49 -67 l1 -20 5 20 c11 45 26 48 46 10
10 -20 21 -35 23 -32 3 3 -2 20 -12 38 -16 32 -16 33 6 51 36 30 18 30 -20 0z"/>
<path d="M1370 637 c0 -5 5 -18 12 -30 6 -12 15 -38 19 -57 6 -32 7 -33 8 -7
0 16 10 40 21 54 11 14 20 31 20 37 0 6 -10 -2 -22 -17 l-21 -28 -18 28 c-11
15 -19 24 -19 20z"/>
<path d="M1550 540 c0 -5 5 -10 10 -10 6 0 10 5 10 10 0 6 -4 10 -10 10 -5 0
-10 -4 -10 -10z"/>
</g>
</svg>
