<?xml version="1.0" standalone="no"?>
<!DOCTYPE svg PUBLIC "-//W3C//DTD SVG 20010904//EN"
 "http://www.w3.org/TR/2001/REC-SVG-20010904/DTD/svg10.dtd">
<svg version="1.0" xmlns="http://www.w3.org/2000/svg"
 width="700.000000pt" height="700.000000pt" viewBox="0 0 700.000000 700.000000"
 preserveAspectRatio="xMidYMid meet">
<metadata>
Created by potrace 1.11, written by Peter Selinger 2001-2013
</metadata>
<g transform="translate(0.000000,700.000000) scale(0.100000,-0.100000)"
fill="#000000" stroke="none">
<path d="M0 3500 l0 -3500 2989 0 c1835 0 2992 4 2996 9 3 5 1 12 -5 16 -5 3
-10 17 -10 29 0 13 -7 29 -15 36 -8 7 -15 9 -15 4 0 -4 -5 -3 -12 4 -8 8 -6
16 12 30 13 10 24 29 25 42 2 35 22 36 39 1 20 -38 20 -68 0 -79 -14 -8 -13
-12 9 -35 21 -23 33 -27 80 -27 31 0 59 5 62 10 3 6 15 10 26 10 14 0 19 -7
19 -25 l0 -25 400 0 400 0 0 481 0 480 -55 69 c-30 38 -50 70 -44 72 7 2 7 13
-1 32 -6 16 -8 37 -4 45 5 14 7 13 14 -4 8 -19 8 -19 17 5 6 13 7 38 3 55 -4
16 -9 35 -10 40 -1 6 -2 17 -1 27 2 25 39 10 56 -23 21 -39 19 -56 -3 -36 -29
26 -34 20 -15 -15 12 -23 17 -57 18 -112 0 -54 4 -81 13 -83 9 -4 12 241 12
1202 0 1032 -2 1208 -14 1221 -19 19 -26 18 -26 -5 0 -13 -7 -18 -25 -18 -15
0 -25 5 -25 13 0 8 -4 14 -10 14 -5 0 -10 14 -10 30 0 17 -4 30 -8 30 -4 0
-14 17 -21 38 -18 49 -25 59 -183 260 -27 33 -48 65 -48 73 0 7 -6 20 -14 28
-19 21 -24 53 -9 58 6 2 27 -10 46 -26 19 -17 40 -31 47 -31 7 0 21 -11 32
-25 11 -14 29 -25 42 -25 24 0 60 -36 51 -51 -4 -5 4 -18 17 -29 19 -16 20
-21 9 -29 -18 -12 -9 -47 25 -91 l26 -35 -5 57 c-4 40 -1 62 8 75 8 10 15 13
15 7 0 -6 16 -19 35 -29 19 -11 36 -28 38 -40 2 -11 5 726 6 1638 l1 1657
-257 -1 c-177 -1 -247 -4 -223 -10 130 -34 133 -36 165 -99 13 -25 31 -52 39
-59 23 -19 20 -27 -11 -26 -14 0 -28 -6 -30 -12 -3 -9 6 -13 25 -13 16 0 36
-8 43 -17 13 -15 11 -16 -11 -9 -14 4 -40 9 -57 13 -18 3 -35 13 -38 22 -7 22
-53 56 -87 65 -22 5 -28 3 -28 -11 0 -13 -3 -14 -12 -5 -18 18 -38 14 -38 -8
0 -11 -7 -20 -15 -20 -8 0 -15 6 -15 13 0 19 -40 41 -53 28 -7 -7 -17 4 -32
37 -12 26 -29 53 -38 61 -15 12 -17 11 -17 -7 0 -11 -7 -23 -16 -26 -11 -4
-14 -14 -9 -35 5 -23 2 -29 -14 -34 -16 -4 -21 -13 -21 -39 0 -26 8 -40 41
-67 43 -35 65 -35 33 0 -19 21 -19 21 6 18 30 -5 43 30 13 37 -18 5 -47 53
-38 62 7 7 104 -99 111 -120 7 -22 23 -23 30 -3 3 8 -6 29 -20 46 -14 17 -26
35 -26 40 0 15 40 -14 46 -33 3 -10 9 -18 14 -18 5 0 7 -6 4 -13 -3 -10 3 -13
24 -9 22 3 32 -2 46 -22 10 -16 26 -26 41 -26 14 0 25 -4 25 -9 0 -5 -9 -7
-19 -4 -13 3 -21 -2 -26 -16 -3 -12 -10 -21 -14 -21 -17 0 -32 30 -26 51 6 18
4 20 -17 13 -12 -4 -42 -6 -65 -5 -38 2 -43 -1 -43 -19 0 -11 7 -23 15 -26 8
-4 15 -11 15 -16 0 -12 -52 -1 -60 12 -3 5 -21 5 -40 0 -19 -4 -28 -8 -19 -9
9 -1 21 -12 27 -25 6 -14 24 -33 39 -43 15 -10 45 -35 66 -57 32 -33 38 -44
33 -68 -3 -16 -2 -27 3 -23 14 8 41 -5 41 -20 0 -21 -59 -15 -70 6 -7 12 -6
20 0 24 6 4 0 15 -14 26 -16 13 -23 26 -19 36 5 13 2 15 -11 10 -27 -10 -76
23 -76 51 0 23 -39 67 -69 77 -34 11 -72 125 -41 125 6 0 10 -4 10 -10 0 -5 8
-10 18 -9 10 0 12 3 5 6 -7 2 -13 11 -13 19 0 9 -4 12 -10 9 -5 -3 -10 3 -10
15 0 11 -7 23 -15 26 -18 7 -39 79 -31 107 2 11 -2 30 -11 43 l-15 24 -870 0
c-567 0 -867 -3 -863 -10 3 -5 20 -13 38 -18 23 -6 33 -15 35 -33 2 -13 9 -30
15 -38 14 -17 13 -17 -90 52 l-72 47 -354 0 c-275 0 -356 -3 -360 -12 -4 -10
-6 -10 -6 0 -1 16 -1088 17 -1108 0 -9 -7 -13 -7 -13 1 0 6 -17 11 -39 11 -43
0 -64 -26 -37 -46 13 -9 14 -14 2 -30 -12 -15 -16 -16 -30 -5 -9 7 -16 22 -16
32 0 30 -20 22 -21 -8 -1 -21 -3 -18 -8 12 -5 36 -9 40 -38 43 -28 3 -32 0
-27 -15 5 -17 5 -17 -9 0 -16 19 -107 25 -107 6 0 -5 -5 -7 -12 -3 -7 5 -9 2
-5 -9 4 -11 2 -14 -9 -10 -8 3 -14 -1 -14 -11 0 -26 -18 -18 -35 14 -19 37
-32 38 -69 4 -25 -24 -28 -32 -23 -70 4 -42 -10 -63 -34 -48 -17 10 -9 22 11
17 15 -4 19 -2 14 10 -3 9 -16 15 -31 14 -14 -1 -28 4 -30 11 -3 7 5 12 21 12
19 0 27 6 32 26 4 14 2 30 -5 37 -8 8 -11 7 -11 -6 0 -9 -4 -17 -9 -17 -6 0
-8 9 -6 20 4 20 -2 20 -971 20 l-974 0 0 -3500z m2200 3429 c0 -11 -11 -11
-29 0 -7 5 -10 14 -6 20 5 9 10 9 21 0 8 -6 14 -15 14 -20z m2080 -31 c0 -10
27 -45 60 -77 33 -32 60 -63 60 -69 0 -12 44 -42 61 -42 7 0 27 -11 45 -25 18
-14 42 -25 52 -25 11 0 32 -14 47 -32 24 -28 29 -30 47 -19 11 7 22 10 25 7 3
-3 -2 -8 -11 -12 -15 -6 -12 -12 20 -45 41 -42 44 -62 4 -26 -49 45 -120 85
-140 80 -15 -4 -20 0 -20 15 0 16 -9 23 -42 29 -34 7 -44 13 -46 31 -2 12 -10
22 -19 22 -19 0 -61 44 -74 76 -4 13 -15 24 -23 24 -9 0 -20 9 -26 20 -7 13
-21 20 -39 20 -24 0 -31 6 -45 43 -24 63 -21 69 24 45 24 -13 40 -29 40 -40z
m-1976 36 c23 -9 20 -23 -4 -17 -11 3 -20 9 -20 14 0 11 3 11 24 3z m2246 -14
c0 -5 -7 -10 -15 -10 -8 0 -15 5 -15 10 0 6 7 10 15 10 8 0 15 -4 15 -10z m60
-26 c0 -18 -14 -18 -30 1 -16 19 -3 40 16 24 8 -6 14 -18 14 -25z m70 11 c0
-8 -4 -15 -10 -15 -5 0 -7 7 -4 15 4 8 8 15 10 15 2 0 4 -7 4 -15z m1416 -21
c-10 -7 -15 -17 -11 -23 10 -17 25 -13 19 4 -11 27 14 16 40 -18 29 -38 31
-49 14 -78 -10 -17 -10 -23 0 -26 17 -6 15 -33 -2 -33 -8 0 -21 8 -28 19 -7
10 -28 22 -46 25 -17 4 -32 11 -32 16 0 15 41 22 58 10 9 -7 1 2 -18 21 -29
27 -35 30 -38 16 -2 -9 -8 -17 -13 -17 -5 0 -9 -7 -9 -15 0 -18 -17 -20 -22
-3 -2 6 -15 13 -28 15 -24 4 -40 19 -39 38 0 6 3 4 6 -2 2 -7 9 -13 14 -13 4
0 5 8 2 17 -5 12 -2 15 10 10 8 -3 18 -1 21 6 5 9 8 9 12 -1 4 -10 12 -4 24
16 11 17 29 32 42 34 33 6 44 -3 24 -18z m-1450 -20 c-21 -20 -28 -17 -14 5 7
11 16 17 20 15 5 -3 2 -12 -6 -20z m-56 -51 c0 -2 -4 -3 -9 -3 -15 0 -61 45
-61 59 0 7 16 -2 35 -20 19 -19 35 -35 35 -36z m-2550 47 c0 -5 -4 -10 -10
-10 -5 0 -10 5 -10 10 0 6 5 10 10 10 6 0 10 -4 10 -10z m65 0 c3 -5 2 -10 -4
-10 -5 0 -13 5 -16 10 -3 6 -2 10 4 10 5 0 13 -4 16 -10z m-55 -35 c0 -8 -4
-15 -10 -15 -5 0 -7 7 -4 15 4 8 8 15 10 15 2 0 4 -7 4 -15z m4470 -35 c0 -5
-2 -10 -4 -10 -3 0 -8 5 -11 10 -3 6 -1 10 4 10 6 0 11 -4 11 -10z m-550 -30
c0 -14 41 -60 54 -60 6 0 27 -14 46 -31 l35 -30 -32 15 c-18 9 -40 16 -50 15
-16 0 -16 -1 2 -10 18 -8 18 -8 -5 -6 -15 1 -26 9 -28 20 -2 9 -17 32 -33 49
-34 38 -36 48 -9 48 11 0 20 -4 20 -10z m660 -50 c12 -8 11 -10 -5 -9 -11 1
-31 5 -45 9 -24 8 -24 8 5 9 17 0 37 -4 45 -9z m-2295 -16 c9 -9 13 -19 10
-22 -3 -3 -15 4 -27 16 -13 12 -17 22 -11 22 6 0 19 -7 28 -16z m-32 -41 c-7
-2 -19 -2 -25 0 -7 3 -2 5 12 5 14 0 19 -2 13 -5z m2177 -34 c0 -11 -3 -11
-24 -3 -23 9 -20 23 4 17 11 -3 20 -9 20 -14z m-1990 -14 c7 -9 11 -17 8 -20
-2 -2 -12 4 -21 15 -9 11 -13 20 -8 20 5 0 14 -7 21 -15z m1362 -49 c10 -7 15
-16 12 -19 -9 -8 -44 11 -44 23 0 13 12 12 32 -4z m228 2 c0 -7 14 -25 32 -40
27 -21 31 -29 21 -39 -10 -10 -13 -10 -13 0 0 6 -13 17 -29 22 -27 10 -46 42
-35 61 8 12 24 10 24 -4z m209 -20 l24 -28 -32 0 c-36 0 -50 21 -29 43 7 8 13
14 13 13 0 0 11 -13 24 -28z m226 2 c3 -5 2 -10 -4 -10 -5 0 -13 5 -16 10 -3
6 -2 10 4 10 5 0 13 -4 16 -10z m-1971 -57 c3 -7 30 -29 60 -48 56 -35 88 -67
50 -49 -10 4 -47 9 -81 10 -33 1 -67 6 -75 10 -11 8 -38 68 -38 87 0 12 80 3
84 -10z m1665 -34 c38 -13 41 -30 4 -23 -32 6 -43 12 -43 25 0 11 0 11 39 -2z
m-1738 -102 c2 -2 21 -14 41 -27 21 -14 38 -32 38 -42 0 -9 6 -19 13 -22 6 -3
-4 -4 -23 -1 -27 4 -40 0 -52 -14 -15 -18 -20 -19 -75 -6 -31 7 -59 18 -61 24
-2 6 -8 9 -13 5 -5 -3 -9 1 -9 10 0 8 5 16 11 18 6 2 12 23 13 47 2 35 9 48
40 77 l39 35 17 -51 c9 -27 19 -52 21 -53z m1899 63 c0 -5 -4 -10 -10 -10 -5
0 -10 5 -10 10 0 6 5 10 10 10 6 0 10 -4 10 -10z m-3914 -367 c-3 -197 -11
-506 -16 -688 -11 -397 -16 -992 -8 -1000 3 -3 19 32 36 77 41 113 228 624
342 938 121 336 170 460 180 460 15 0 67 -151 166 -483 l98 -327 -30 -34 c-56
-66 -160 -184 -319 -361 -88 -98 -178 -199 -200 -225 -22 -26 -84 -98 -138
-160 -53 -62 -95 -115 -93 -117 6 -6 549 -60 781 -78 248 -19 361 -19 640 0
121 7 319 19 440 25 271 14 413 25 422 33 9 10 -14 199 -63 497 -112 693 -198
1279 -189 1288 8 9 451 -250 1310 -765 640 -384 716 -431 739 -453 17 -17 18
-23 7 -67 -7 -26 -51 -154 -98 -283 -112 -308 -184 -510 -190 -535 -4 -17 6
-26 59 -49 41 -19 70 -39 83 -60 13 -19 44 -43 85 -63 36 -17 70 -40 75 -50
13 -25 46 -65 67 -81 14 -11 19 -10 36 9 11 11 18 27 15 35 -3 8 0 14 5 14 7
0 11 -30 10 -80 -1 -69 -3 -77 -14 -61 -8 10 -25 21 -39 23 -28 6 -32 -3 -10
-22 8 -7 15 -19 15 -27 0 -8 5 -11 10 -8 13 8 28 -32 22 -62 -5 -27 -42 -33
-42 -5 -1 9 -6 26 -13 38 -15 27 -86 88 -93 81 -8 -7 43 -97 73 -128 l24 -26
-25 -5 c-26 -5 -70 16 -95 45 -7 10 -22 17 -32 17 -10 0 -21 10 -24 23 -8 24
-48 63 -81 76 -11 5 -29 25 -38 45 -12 26 -23 36 -40 36 -23 0 -32 12 -60 83
-8 20 -19 37 -25 37 -5 0 -16 -20 -24 -44 -14 -40 -14 -44 4 -60 10 -9 19 -11
19 -6 0 18 26 10 50 -15 13 -14 29 -25 37 -25 7 0 13 -11 13 -24 0 -16 27 -52
85 -112 47 -49 90 -90 97 -90 7 -1 17 -2 22 -3 4 0 1 -13 -9 -27 -12 -19 -14
-29 -6 -37 16 -16 13 -29 -6 -25 -10 1 -24 -1 -30 -5 -9 -5 -13 -3 -13 7 0 9
5 16 11 16 8 0 8 5 -1 15 -9 11 -16 12 -26 4 -14 -12 -34 -4 -34 13 0 6 -12
27 -28 46 -15 20 -35 49 -44 66 l-16 31 -12 -30 -12 -30 -14 40 c-8 22 -18 58
-22 80 -5 25 -13 40 -22 40 -8 0 -24 11 -34 25 -11 14 -23 29 -26 33 -7 7 -70
-150 -70 -172 0 -4 11 -13 24 -19 22 -10 25 -8 31 16 4 15 10 21 12 15 3 -7
10 -13 17 -13 13 0 41 -74 51 -135 3 -22 13 -51 21 -65 l14 -25 -6 26 c-3 15
-1 30 5 33 6 4 2 23 -10 52 -24 54 -21 65 8 26 22 -30 39 -163 20 -159 -20 4
-19 -33 3 -68 12 -19 25 -35 29 -35 12 0 45 -79 36 -88 -4 -4 -10 -1 -12 6 -3
6 -11 12 -18 12 -23 0 1 -72 33 -100 16 -14 32 -38 36 -54 6 -26 6 -27 -9 -12
-20 19 -69 22 -63 4 3 -7 17 -14 31 -16 31 -4 47 -43 27 -67 -9 -10 -9 -15 -1
-15 6 0 11 -8 11 -18 0 -23 -36 -26 -44 -4 -3 9 -17 37 -31 61 -22 39 -25 53
-20 111 3 49 1 72 -10 86 -14 18 -14 18 -15 -3 0 -28 -33 -20 -50 12 -7 13
-18 21 -25 18 -8 -2 -16 6 -21 19 -9 28 -54 78 -71 78 -15 0 -17 -38 -4 -59 5
-7 14 -11 20 -7 11 7 28 -40 18 -50 -7 -7 -41 27 -50 49 -3 9 -13 14 -20 11
-10 -4 -16 4 -19 26 -4 24 -1 30 10 25 13 -5 13 -3 0 17 -8 13 -18 31 -21 41
-6 16 -3 16 24 -3 16 -12 33 -20 36 -17 6 7 -42 67 -62 79 -11 7 -56 -92 -110
-245 -12 -33 -22 -47 -31 -43 -8 3 -14 1 -14 -4 0 -21 -19 -9 -22 14 -2 15
-83 105 -228 252 -177 181 -220 230 -204 232 11 2 90 -20 175 -48 185 -60 217
-67 224 -49 6 16 -13 136 -130 824 -49 293 -91 513 -98 518 -16 11 -421 1
-470 -11 -72 -19 -94 -52 -189 -286 -48 -121 -55 -146 -39 -146 8 0 109 84
226 188 91 81 78 79 207 26 154 -63 228 -102 228 -118 0 -13 -68 -76 -259
-241 -138 -119 -120 -113 -233 -71 -54 20 -127 44 -163 53 -58 14 -68 14 -81
2 -37 -38 -234 -575 -234 -640 0 -22 22 -140 50 -263 27 -123 50 -231 50 -239
0 -23 -61 -62 -257 -163 l-171 -89 -151 -380 c-249 -627 -367 -942 -357 -952
2 -3 29 -8 60 -12 31 -4 61 -12 67 -18 13 -13 -24 -61 -292 -376 -17 -19 -32
-28 -42 -24 -8 3 -49 50 -89 104 -73 96 -415 589 -534 768 -68 104 -141 170
-399 365 -180 135 -265 206 -265 220 0 5 28 50 61 99 40 59 59 96 55 107 -7
18 -127 198 -208 312 l-52 72 27 128 c14 70 51 244 81 387 59 279 109 555 103
561 -5 5 -61 -78 -332 -496 -109 -168 -242 -371 -296 -452 l-98 -146 -413 179
c-227 99 -496 216 -598 260 -168 73 -222 102 -209 112 2 2 112 41 244 86 528
182 673 232 735 255 36 14 110 40 165 60 290 102 611 220 620 228 6 6 -7 7
-35 4 -25 -4 -139 -13 -255 -21 -115 -8 -248 -20 -295 -25 -123 -14 -589 -42
-599 -36 -16 10 -55 98 -201 451 -158 383 -207 511 -199 520 2 2 60 -22 129
-54 l126 -57 409 74 409 74 25 -29 c13 -15 58 -64 100 -108 42 -45 146 -159
232 -255 86 -96 176 -193 199 -215 l42 -40 -22 45 c-13 25 -53 99 -90 165 -37
66 -73 134 -82 150 -8 17 -54 104 -103 195 -48 91 -108 203 -133 250 -24 47
-60 113 -78 147 -19 34 -34 68 -34 76 0 7 13 31 28 53 43 59 385 540 497 699
149 210 226 315 232 315 4 0 3 -161 -1 -357z m3954 337 c0 -5 -4 -10 -10 -10
-5 0 -10 5 -10 10 0 6 5 10 10 10 6 0 10 -4 10 -10z m114 -30 c14 0 28 -4 31
-10 3 -6 -1 -7 -9 -4 -8 3 -29 -4 -46 -16 -28 -20 -30 -20 -36 -3 -3 10 -10
26 -15 35 -14 28 -11 30 21 13 16 -8 40 -15 54 -15z m-1796 -9 c3 -8 -1 -12
-9 -9 -7 2 -15 10 -17 17 -3 8 1 12 9 9 7 -2 15 -10 17 -17z m1802 -91 c0 -5
-2 -10 -4 -10 -3 0 -8 5 -11 10 -3 6 -1 10 4 10 6 0 11 -4 11 -10z m-30 -49
c0 -5 -9 -11 -20 -14 -20 -5 -26 3 -13 16 9 10 33 8 33 -2z m-214 -982 c35
-56 24 -59 -20 -4 -26 31 -33 45 -22 45 9 0 27 -18 42 -41z m-257 9 c-1 -37
-24 -93 -33 -80 -4 7 -12 10 -17 7 -5 -4 -13 4 -18 17 -7 19 -3 28 23 50 38
33 46 34 45 6z m675 -224 c8 -3 13 -11 10 -19 -3 -7 2 -19 10 -28 8 -8 13 -17
10 -20 -3 -3 4 -8 15 -12 21 -6 30 -45 11 -45 -5 0 -10 4 -10 8 0 5 -17 27
-38 50 -28 30 -35 45 -28 52 8 8 6 9 -6 5 -11 -4 -18 -2 -18 4 0 12 20 14 44
5z m117 -182 c15 -38 4 -37 -19 2 -16 27 -17 34 -6 29 9 -3 20 -17 25 -31z
m-74 -662 c-6 -11 -19 -20 -27 -20 -12 1 -11 3 3 11 9 5 17 17 17 25 0 8 4 12
10 9 6 -4 5 -13 -3 -25z m-57 -56 c0 -8 -4 -12 -10 -9 -5 3 -10 10 -10 16 0 5
5 9 10 9 6 0 10 -7 10 -16z m30 -134 c0 -5 -4 -10 -10 -10 -5 0 -10 5 -10 10
0 6 5 10 10 10 6 0 10 -4 10 -10z m267 -82 c-3 -8 -6 -5 -6 6 -1 11 2 17 5 13
3 -3 4 -12 1 -19z m-11 -109 c19 -22 19 -22 -3 -10 -24 12 -39 31 -25 31 5 0
17 -10 28 -21z m-366 1 c0 -5 -2 -10 -4 -10 -3 0 -8 5 -11 10 -3 6 -1 10 4 10
6 0 11 -4 11 -10z m7 -65 c0 -17 -13 -20 -21 -6 -4 5 0 12 6 14 7 3 13 6 14 6
0 1 1 -6 1 -14z m-83 -1 c13 -5 24 -44 12 -44 -20 0 -66 25 -66 36 0 15 27 18
54 8z m146 -49 c0 -28 43 -75 67 -75 19 0 39 -20 47 -48 5 -16 3 -22 -7 -22
-8 0 -17 7 -20 15 -5 11 -79 55 -94 55 -2 0 -3 -11 -3 -24 0 -14 -5 -28 -12
-32 -8 -5 -9 1 -5 22 6 30 -3 40 -55 60 -18 6 -34 41 -24 51 3 4 17 1 32 -5
17 -8 31 -9 42 -2 9 5 13 10 9 10 -11 0 2 20 14 20 5 0 9 -11 9 -25z m78 -230
c-1 -19 -3 -35 -5 -35 -7 0 -43 35 -43 43 0 6 25 20 47 26 1 1 2 -15 1 -34z
m76 -40 c3 -8 1 -15 -4 -15 -6 0 -10 7 -10 15 0 8 2 15 4 15 2 0 6 -7 10 -15z
m-430 -261 c3 -8 2 -12 -4 -9 -6 3 -10 10 -10 16 0 14 7 11 14 -7z m132 -64
c35 -29 51 -36 60 -29 21 17 85 -35 84 -68 0 -4 -8 2 -18 15 -14 18 -23 21
-41 14 -20 -7 -21 -9 -7 -21 9 -8 16 -21 16 -31 0 -9 11 -23 25 -30 27 -15 29
-18 17 -38 -11 -17 -42 -4 -42 18 0 10 -9 20 -20 23 -13 3 -23 20 -31 51 -7
27 -17 46 -25 46 -16 0 -67 54 -70 75 -3 20 -2 20 52 -25z m-125 -110 c3 -3 9
-18 13 -34 11 -46 66 -106 99 -106 16 0 27 -5 27 -14 0 -21 -25 -26 -49 -10
-18 13 -20 13 -15 0 3 -7 1 -17 -5 -21 -6 -3 -11 1 -11 9 0 8 -25 63 -55 122
-56 110 -73 158 -33 94 12 -19 25 -37 29 -40z m319 -14 c0 -6 -5 -5 -12 2 -19
19 -31 14 -26 -13 3 -13 1 -22 -3 -19 -13 7 -11 31 4 54 11 19 13 19 25 3 6
-9 12 -21 12 -27z m-156 -82 c4 -10 1 -14 -6 -12 -15 5 -23 28 -10 28 5 0 13
-7 16 -16z m-477 -36 c-3 -8 -6 -5 -6 6 -1 11 2 17 5 13 3 -3 4 -12 1 -19z
m83 -7 c0 -16 3 -37 7 -47 4 -11 2 -15 -7 -12 -7 2 -17 14 -21 27 -6 15 -5 20
3 15 7 -5 9 1 4 20 -4 15 -2 26 4 26 5 0 10 -13 10 -29z m-255 -11 c3 -6 -1
-7 -9 -4 -18 7 -21 14 -7 14 6 0 13 -4 16 -10z m81 -51 c3 -6 1 -16 -5 -22 -8
-8 -11 -7 -11 5 0 9 -6 19 -12 21 -8 3 -7 6 4 6 9 1 20 -4 24 -10z m252 -35
c-2 -21 -18 -36 -18 -16 0 4 -3 17 -6 30 -5 18 -3 21 10 16 9 -3 15 -16 14
-30z m-308 -9 c-7 -8 -17 -15 -23 -15 -6 0 -2 7 9 15 25 19 30 19 14 0z m75 5
c-4 -6 4 -19 17 -30 19 -16 20 -19 6 -20 -10 0 -18 -5 -18 -12 0 -21 -19 5
-24 34 -4 27 0 38 16 38 5 0 6 -5 3 -10z m185 -21 c0 -5 -4 -9 -10 -9 -5 0
-10 7 -10 16 0 8 5 12 10 9 6 -3 10 -10 10 -16z m-487 -19 c4 0 7 -8 7 -18 0
-10 5 -23 12 -30 9 -9 9 -15 0 -24 -9 -9 -15 -8 -27 8 -8 10 -12 25 -10 32 2
6 -2 12 -10 12 -8 0 -15 5 -15 10 0 6 -6 10 -14 10 -8 0 -17 4 -20 9 -4 5 10
5 32 0 20 -5 40 -9 45 -9z m262 -28 c-8 -8 -25 10 -19 20 4 6 9 5 15 -3 4 -7
6 -15 4 -17z m-418 -42 c11 0 47 -60 40 -67 -3 -3 -12 4 -19 16 -18 29 -26 26
-21 -6 3 -25 1 -23 -16 11 -11 21 -18 43 -15 47 3 5 -1 9 -8 9 -8 0 -14 10
-15 23 -2 21 -1 21 22 -5 13 -16 28 -28 32 -28z m513 40 c0 -5 -4 -10 -10 -10
-5 0 -10 5 -10 10 0 6 5 10 10 10 6 0 10 -4 10 -10z m48 -51 c2 -5 13 -9 25
-9 23 0 107 -93 107 -118 0 -7 6 -12 13 -11 39 7 87 -45 87 -92 0 -18 -18 -8
-25 14 -4 14 -8 18 -12 9 -3 -8 0 -19 6 -25 14 -14 14 -37 0 -37 -13 0 -39 61
-40 97 l-1 28 -7 -25 -7 -25 -8 23 c-4 12 -12 22 -17 22 -5 0 -9 12 -9 26 0
14 -4 23 -10 19 -5 -3 -10 -22 -10 -41 0 -21 4 -33 10 -29 6 3 10 -1 10 -9 0
-9 17 -44 39 -79 21 -35 41 -74 45 -88 l7 -24 -21 24 c-18 21 -23 22 -30 11
-13 -20 -22 -9 -70 85 -23 44 -53 97 -67 117 -14 21 -22 42 -17 49 5 9 2 10
-9 6 -10 -4 -17 -1 -17 5 0 6 -6 19 -14 27 -9 10 -12 27 -9 44 4 23 9 26 27
21 11 -4 23 -11 24 -15z m192 11 c0 -5 -4 -10 -9 -10 -6 0 -13 5 -16 10 -3 6
1 10 9 10 9 0 16 -4 16 -10z m-540 -10 c0 -5 -4 -10 -10 -10 -5 0 -10 5 -10
10 0 6 5 10 10 10 6 0 10 -4 10 -10z m250 -10 c0 -6 -12 -15 -26 -20 -35 -14
-36 -13 -24 10 11 21 50 28 50 10z m-506 -25 c-4 -8 -10 -15 -15 -15 -4 0 -6
7 -3 15 4 8 10 15 15 15 4 0 6 -7 3 -15z m306 6 c0 -5 13 -11 29 -14 16 -3 35
-13 43 -21 17 -16 84 -46 91 -40 2 2 10 -14 17 -36 7 -22 19 -45 27 -51 7 -6
13 -17 13 -24 0 -7 7 -18 16 -26 8 -7 34 -46 56 -86 23 -43 46 -73 56 -73 8 0
12 -3 8 -7 -4 -5 -29 -8 -56 -8 -37 0 -46 3 -42 14 4 10 1 12 -9 5 -18 -11
-91 -14 -104 -4 -5 4 -25 11 -43 15 -18 4 -36 13 -39 21 -3 8 -11 14 -19 14
-8 0 -31 9 -51 20 -21 11 -52 23 -71 26 -18 4 -39 15 -46 26 -8 11 -19 17 -25
13 -6 -3 -11 1 -11 9 0 9 -5 16 -11 16 -6 0 -9 -7 -5 -15 5 -13 2 -13 -17 -2
-12 8 -33 13 -47 12 -28 -3 -174 100 -164 116 3 5 2 15 -3 22 -11 18 -13 38
-2 31 5 -3 9 -11 9 -18 0 -24 36 -57 55 -50 15 6 16 3 10 -17 -7 -21 -6 -22 8
-11 9 8 20 11 26 8 12 -8 54 60 46 76 -3 7 0 5 7 -5 35 -50 57 -70 72 -64 23
9 20 26 -8 37 -33 12 -32 50 1 50 13 0 23 -4 23 -10 0 -5 7 -10 15 -10 7 0 18
-7 23 -16 8 -14 13 -14 32 -4 34 18 71 62 66 77 -3 7 1 13 9 13 8 0 15 -4 15
-9z m-370 -44 c0 -6 -9 -2 -20 8 -11 10 -20 23 -20 28 0 6 9 2 20 -8 11 -10
20 -23 20 -28z m590 14 c0 -11 5 -23 10 -26 6 -3 10 -17 10 -31 0 -33 -17 -22
-25 15 -3 16 -13 32 -21 35 -21 8 -17 26 6 26 13 0 20 -7 20 -19z m-527 -41
c-3 -11 -7 -20 -9 -20 -2 0 -4 9 -4 20 0 11 4 20 9 20 5 0 7 -9 4 -20z m807
-26 c0 -8 -5 -12 -10 -9 -6 4 -8 11 -5 16 9 14 15 11 15 -7z m-211 -89 c0 -5
-8 1 -19 15 -11 14 -19 34 -19 45 0 15 5 11 19 -15 11 -19 19 -39 19 -45z m49
-65 c12 -16 22 -34 22 -39 0 -6 9 -18 20 -29 16 -14 18 -24 11 -47 -5 -17 -10
-23 -10 -14 -1 9 -12 33 -26 53 -14 20 -28 49 -31 64 -4 15 -12 30 -18 34 -7
5 -8 8 0 8 5 0 20 -13 32 -30z m196 -16 c4 -10 1 -14 -6 -12 -15 5 -23 28 -10
28 5 0 13 -7 16 -16z m-119 -94 c3 -5 1 -10 -4 -10 -6 0 -11 5 -11 10 0 6 2
10 4 10 3 0 8 -4 11 -10z m735 -861 c0 -10 -4 -19 -10 -19 -5 0 -10 12 -10 26
0 14 4 23 10 19 6 -3 10 -15 10 -26z m-30 1 c0 -5 -4 -10 -10 -10 -5 0 -10 5
-10 10 0 6 5 10 10 10 6 0 10 -4 10 -10z m-5342 -244 c59 -30 99 -62 90 -72
-4 -4 -35 10 -69 31 l-62 38 -24 -27 c-32 -37 -29 -52 12 -72 20 -9 38 -21 41
-26 12 -19 -7 -21 -41 -5 -51 24 -60 22 -89 -25 -34 -57 -34 -23 0 45 28 55
82 137 90 137 2 0 26 -11 52 -24z m3769 -13 c3 -7 -9 -13 -28 -15 -34 -3 -77
-47 -65 -67 4 -6 39 -11 85 -11 46 0 82 -5 89 -12 19 -19 14 -65 -12 -95 -21
-24 -31 -27 -81 -28 -69 0 -92 20 -61 54 25 28 34 26 38 -6 7 -59 88 -20 88
43 0 33 -10 36 -90 23 -89 -14 -104 -5 -97 58 7 62 21 74 80 71 28 -2 52 -8
54 -15z m1491 -22 c3 -8 -1 -12 -9 -9 -7 2 -15 10 -17 17 -3 8 1 12 9 9 7 -2
15 -10 17 -17z m-1784 -150 c36 -57 58 -131 51 -169 -5 -26 -14 -37 -41 -48
-45 -19 -77 -10 -114 32 -38 44 -82 130 -78 152 3 11 24 -15 61 -70 64 -99 96
-119 129 -78 24 30 24 32 -17 125 -49 112 -44 140 9 56z m-3169 25 c65 -28 86
-118 33 -144 -16 -7 -28 -20 -28 -28 0 -21 -18 -17 -30 6 -14 27 -50 25 -94
-5 -44 -30 -46 -30 -46 -7 0 18 63 157 82 179 14 17 41 16 83 -1z m2843 -173
c27 -64 52 -151 52 -181 0 -40 -22 -19 -36 33 -7 28 -24 83 -38 123 -18 54
-21 72 -12 72 8 0 23 -21 34 -47z m-2507 -26 c-6 -16 -18 -27 -29 -27 -36 0
-69 -58 -51 -91 8 -16 19 -20 52 -17 l42 3 3 -39 c5 -55 -10 -65 -49 -32 -17
15 -51 32 -75 38 -24 7 -44 15 -44 19 0 13 79 124 116 164 40 43 55 35 35 -18z
m2414 -38 c72 -68 91 -111 28 -64 -48 36 -123 107 -123 117 0 22 36 2 95 -53z
m-2761 -12 c8 -12 7 -20 -2 -29 -11 -11 -16 -10 -27 5 -15 20 -9 50 8 44 6 -2
15 -11 21 -20z m634 -72 c6 -44 9 -81 7 -83 -5 -5 -45 126 -45 147 0 22 11 34
21 24 4 -5 12 -44 17 -88z m1860 58 c-2 -10 -17 -20 -38 -24 -39 -8 -60 -32
-60 -67 0 -22 3 -23 48 -20 36 2 47 0 47 -12 0 -8 -13 -17 -31 -20 -45 -10
-54 -18 -54 -50 0 -46 28 -54 97 -31 60 20 87 15 63 -13 -27 -34 -147 -48
-173 -21 -13 12 -47 163 -47 206 0 22 29 45 70 57 56 16 82 15 78 -5z m241
-62 c30 -56 40 -101 23 -101 -10 0 -41 62 -58 118 -19 60 -2 52 35 -17z
m-2003 -61 c-27 -107 -41 -140 -56 -140 -20 0 -21 23 -2 49 11 15 27 54 35 87
20 75 36 118 43 111 3 -3 -6 -51 -20 -107z m1410 -84 c-8 -54 -17 -101 -20
-104 -21 -21 -146 181 -146 236 0 9 20 -19 45 -62 55 -97 76 -122 86 -104 4 7
10 33 13 58 4 25 12 70 19 100 l12 55 3 -40 c1 -22 -4 -84 -12 -139z m-1570
105 c-8 -60 -25 -111 -37 -111 -13 0 -11 22 7 95 20 78 40 88 30 16z m384 22
c-1 -10 -7 -31 -15 -48 l-13 -30 -1 41 c-1 22 2 44 6 47 12 13 23 7 23 -10z
m106 -63 c-36 -39 -45 -54 -38 -67 38 -76 53 -115 50 -130 -3 -13 -12 -4 -33
32 -35 62 -64 95 -82 95 -8 0 -25 -24 -39 -52 l-25 -53 5 40 c4 32 15 49 58
89 56 52 138 109 146 101 3 -3 -16 -27 -42 -55z m274 -8 l28 -42 48 56 c59 69
69 56 18 -23 -21 -32 -45 -84 -54 -117 l-16 -58 -13 58 c-7 33 -19 74 -27 92
-8 17 -21 49 -30 69 -15 35 -15 36 2 23 9 -8 30 -34 44 -58z m3183 26 c7 -22
-5 -48 -22 -48 -9 0 -22 -5 -28 -11 -7 -7 -20 -8 -34 -3 -13 4 -32 7 -41 5
-28 -4 -11 26 18 33 14 4 27 13 30 21 7 18 71 20 77 3z m41 -80 c8 -18 12 -37
9 -44 -2 -7 3 -26 12 -44 17 -33 12 -70 -9 -70 -7 0 -18 11 -24 25 -7 14 -19
28 -27 31 -8 4 -15 14 -15 24 0 11 -4 22 -10 25 -16 10 -12 30 13 58 29 34 35
33 51 -5z m-204 18 c0 -3 -4 -8 -10 -11 -5 -3 -10 -1 -10 4 0 6 5 11 10 11 6
0 10 -2 10 -4z m106 -93 c-10 -10 -19 5 -10 18 6 11 8 11 12 0 2 -7 1 -15 -2
-18z m254 21 c0 -12 -43 -44 -51 -38 -15 9 -10 32 9 37 27 7 42 8 42 1z m-340
-45 c0 -12 5 -19 13 -16 6 2 11 10 10 16 -2 6 4 11 13 11 8 0 12 -4 9 -10 -3
-5 5 -21 19 -35 13 -13 26 -32 28 -42 2 -10 16 -24 31 -31 27 -13 28 -15 11
-33 -15 -17 -18 -17 -28 -3 -7 9 -19 15 -27 13 -7 -1 -26 4 -41 11 -21 10 -28
20 -28 43 0 20 -6 30 -20 34 -11 3 -17 9 -14 14 3 5 0 18 -6 29 -9 17 -8 20
10 20 14 0 20 -7 20 -21z m-2620 -4 c0 -9 -7 -18 -16 -22 -18 -7 -39 11 -30
26 11 17 46 13 46 -4z m2870 5 c0 -5 -7 -7 -15 -4 -8 4 -15 8 -15 10 0 2 7 4
15 4 8 0 15 -4 15 -10z m-602 -339 c3 -8 -1 -12 -9 -9 -7 2 -15 10 -17 17 -3
8 1 12 9 9 7 -2 15 -10 17 -17z"/>
<path d="M4585 6420 c-3 -5 1 -10 10 -10 9 0 13 5 10 10 -3 6 -8 10 -10 10 -2
0 -7 -4 -10 -10z"/>
<path d="M2274 6055 c-189 -262 -415 -580 -462 -653 l-41 -64 25 -56 c50 -114
460 -900 525 -1006 13 -21 20 -26 23 -15 7 20 24 349 31 594 3 116 13 408 21
650 8 242 14 505 12 585 l-3 145 -131 -180z"/>
<path d="M4575 5738 c3 -18 35 -213 70 -433 36 -220 72 -440 80 -490 42 -258
76 -488 82 -552 12 -137 16 -130 239 416 84 207 178 436 208 510 31 73 56 137
56 141 0 17 -493 323 -665 414 -67 35 -77 34 -70 -6z"/>
<path d="M2960 5643 c-66 -174 -191 -527 -245 -688 -18 -55 -56 -165 -85 -245
-69 -193 -159 -464 -156 -468 6 -5 369 395 491 543 22 26 47 55 55 64 30 31
116 136 139 169 l23 33 -46 183 c-68 273 -129 466 -146 466 -5 0 -18 -26 -30
-57z"/>
<path d="M5376 5268 c-37 -57 -274 -623 -265 -632 6 -6 917 33 1182 50 53 4
97 10 97 13 0 4 -37 29 -82 55 -46 26 -184 108 -308 182 -446 267 -575 343
-592 349 -11 4 -22 -1 -32 -17z m34 -98 c0 -11 -2 -20 -4 -20 -2 0 -6 9 -9 20
-3 11 -1 20 4 20 5 0 9 -9 9 -20z m16 -50 c0 -11 -6 -20 -13 -20 -15 0 -15 2
-7 24 9 22 20 20 20 -4z m-80 -24 c8 -8 14 -19 14 -24 0 -5 7 -15 15 -22 17
-14 20 -50 4 -50 -5 0 -16 15 -24 34 -8 19 -19 37 -25 41 -11 6 -14 35 -4 35
3 0 12 -6 20 -14z m-12 -78 c17 -33 27 -43 46 -42 23 1 23 1 4 -15 -16 -13
-18 -24 -13 -53 3 -20 12 -44 19 -54 12 -14 12 -18 -3 -29 -9 -7 -17 -18 -17
-25 0 -25 -28 10 -64 80 -40 77 -44 104 -19 155 19 40 18 40 47 -17z m609
-135 c22 -46 23 -51 6 -43 -15 9 -39 64 -39 94 0 14 6 5 33 -51z"/>
<path d="M5330 4875 c0 -8 5 -15 10 -15 6 0 10 7 10 15 0 8 -4 15 -10 15 -5 0
-10 -7 -10 -15z"/>
<path d="M1296 4834 c-181 -35 -334 -68 -339 -73 -6 -6 3 -15 24 -24 19 -8
216 -96 439 -195 223 -99 470 -208 550 -242 80 -34 159 -68 175 -75 57 -26 85
-34 85 -27 0 17 -473 573 -552 648 l-53 51 -329 -63z"/>
<path d="M670 4790 c0 -18 194 -482 299 -712 l30 -68 78 0 c74 1 150 6 448 29
72 6 263 20 425 32 162 11 298 23 303 26 13 8 11 9 -465 223 -233 105 -432
195 -443 200 -39 19 -251 112 -309 136 -32 14 -91 40 -131 59 -75 34 -209 85
-226 85 -5 0 -9 -4 -9 -10z"/>
<path d="M5840 4589 c-90 -7 -107 -11 -122 -30 -26 -31 -31 12 62 -534 21
-126 46 -279 55 -340 25 -171 35 -191 85 -178 17 5 21 12 18 33 -3 23 -1 26
16 22 17 -5 18 -1 13 25 -5 23 -1 35 13 48 11 10 20 29 20 42 0 12 4 23 9 23
18 0 33 -30 27 -55 -5 -18 -2 -25 9 -25 8 0 15 -4 15 -10 0 -5 9 -19 21 -31
l21 -21 -21 7 c-18 5 -20 4 -12 -16 4 -13 13 -25 18 -26 11 -4 26 32 24 55 -1
6 3 12 8 12 6 0 18 24 27 54 l17 53 -33 69 c-45 95 -49 106 -52 133 -3 26 -28
42 -28 18 0 -20 -31 -31 -42 -15 -14 23 -9 78 8 85 12 5 14 15 9 54 -4 26 -4
53 0 59 10 17 55 -28 55 -55 0 -29 10 -37 27 -23 11 9 17 8 27 -3 19 -20 28
-76 13 -83 -9 -3 -9 -5 0 -5 7 -1 25 -20 40 -43 16 -26 28 -38 31 -30 2 8 -1
19 -7 25 -14 14 -14 37 -1 37 6 0 10 -7 10 -15 0 -30 15 -14 33 33 178 489
230 644 216 653 -16 11 -475 9 -629 -2z m380 -648 c0 -10 -8 -7 -25 9 -14 13
-25 33 -25 44 1 19 3 18 25 -9 14 -16 25 -36 25 -44z m-239 -234 c-10 -9 -11
-8 -5 6 3 10 9 15 12 12 3 -3 0 -11 -7 -18z"/>
<path d="M5165 4261 c-38 -32 -83 -72 -99 -90 -26 -27 -27 -31 -10 -31 33 0
374 104 366 112 -12 12 -153 68 -171 68 -9 0 -47 -27 -86 -59z"/>
<path d="M5395 4172 c-48 -10 -381 -124 -390 -133 -7 -7 -3 -14 10 -22 31 -19
158 -67 175 -67 15 0 238 216 229 223 -2 2 -13 1 -24 -1z"/>
<path d="M2488 4044 c-9 -8 34 -157 106 -369 126 -373 187 -548 198 -568 10
-20 11 -20 35 9 38 47 292 415 398 578 85 130 96 152 86 169 -11 16 -10 18 7
13 14 -5 25 3 46 34 26 40 32 60 19 60 -5 0 -35 5 -68 10 -33 5 -175 19 -315
30 -140 11 -293 25 -340 30 -95 11 -164 13 -172 4z"/>
<path d="M4613 4025 c-83 -7 -157 -16 -162 -20 -6 -3 -11 -16 -11 -28 0 -32
111 -477 120 -477 8 0 48 92 145 335 76 193 81 206 68 204 -5 -1 -76 -7 -160
-14z"/>
<path d="M4230 4000 c-41 -5 -205 -16 -365 -24 -159 -9 -310 -19 -334 -22
l-44 -6 6 -451 c10 -669 30 -1142 48 -1131 11 7 145 274 312 619 63 132 177
368 252 525 216 447 239 505 207 499 -4 -1 -41 -5 -82 -9z m-501 -251 c29 -10
43 -29 21 -29 -5 0 -7 -7 -3 -16 5 -14 3 -14 -16 -3 -12 8 -19 19 -17 26 3 7
-3 17 -12 22 -23 14 -12 14 27 0z"/>
<path d="M6100 3991 c0 -5 7 -14 15 -21 12 -10 15 -10 15 3 0 8 -7 17 -15 21
-8 3 -15 2 -15 -3z"/>
<path d="M2170 3960 c-69 -22 -444 -153 -740 -258 -306 -109 -831 -293 -852
-299 -10 -3 -18 -9 -18 -12 0 -16 610 -300 917 -427 45 -19 88 -34 97 -34 24
0 91 85 193 244 53 83 119 187 148 231 28 44 73 115 101 158 27 44 73 114 102
158 49 73 142 239 142 253 0 10 -32 5 -90 -14z"/>
<path d="M2416 3942 c-14 -23 -106 -426 -177 -775 -28 -143 -38 -241 -25 -254
12 -12 500 107 520 127 14 14 -22 136 -129 440 -102 292 -162 451 -174 463 -5
5 -11 4 -15 -1z"/>
<path d="M6151 3903 c0 -7 -11 -13 -23 -14 -23 0 -23 0 1 -10 28 -11 34 -7 28
18 -3 10 -5 12 -6 6z"/>
<path d="M4367 3873 c-21 -34 -349 -690 -405 -808 -87 -185 -268 -562 -322
-670 -22 -44 -35 -81 -30 -83 15 -5 581 285 607 311 6 7 62 138 123 292 62
154 127 316 144 360 32 80 32 81 18 145 -16 77 -87 369 -102 423 -10 35 -23
46 -33 30z"/>
<path d="M3297 3701 c-122 -170 -455 -663 -463 -686 -3 -8 35 -133 84 -277 50
-145 152 -443 227 -663 191 -558 300 -867 321 -907 15 -28 19 -30 22 -13 7 32
-29 1729 -48 2275 -11 311 -19 420 -30 420 -4 0 -55 -67 -113 -149z"/>
<path d="M6180 3830 c0 -8 5 -22 10 -30 9 -13 10 -13 10 0 0 8 -5 22 -10 30
-9 13 -10 13 -10 0z"/>
<path d="M6020 3573 c0 -4 5 -15 10 -23 8 -13 10 -13 10 2 0 9 -4 20 -10 23
-5 3 -10 3 -10 -2z"/>
<path d="M5994 3523 l6 -28 -20 24 c-19 22 -20 22 -20 3 0 -11 6 -25 13 -31
18 -14 50 19 41 43 -10 27 -27 18 -20 -11z"/>
<path d="M6050 3486 c0 -9 5 -16 10 -16 6 0 10 4 10 9 0 6 -4 13 -10 16 -5 3
-10 -1 -10 -9z"/>
<path d="M6496 3482 c-6 -10 21 -52 35 -52 5 0 9 6 9 13 0 18 -36 51 -44 39z"/>
<path d="M5888 3473 c7 -3 16 -2 19 1 4 3 -2 6 -13 5 -11 0 -14 -3 -6 -6z"/>
<path d="M6020 3458 c1 -7 7 -26 14 -43 13 -30 13 -30 25 -8 10 19 8 26 -9 43
-23 23 -30 25 -30 8z"/>
<path d="M6466 3457 c3 -10 9 -15 12 -12 3 3 0 11 -7 18 -10 9 -11 8 -5 -6z"/>
<path d="M6090 3257 c0 -16 -4 -26 -9 -23 -10 7 -25 -24 -16 -33 3 -3 10 1 15
9 7 11 11 9 19 -13 6 -15 17 -27 25 -27 7 0 17 -8 20 -17 5 -11 10 -13 17 -6
7 7 18 3 35 -14 33 -33 39 -24 17 20 -12 25 -23 35 -34 31 -11 -3 -19 7 -29
36 -7 21 -17 37 -22 34 -5 -3 -16 2 -23 12 -13 18 -14 17 -15 -9z"/>
<path d="M6176 3271 c-4 -6 3 -20 14 -31 l21 -21 -3 27 c-3 29 -22 43 -32 25z"/>
<path d="M5967 3203 c-4 -3 -7 -11 -7 -17 0 -6 5 -5 12 2 6 6 9 14 7 17 -3 3
-9 2 -12 -2z"/>
<path d="M4533 3188 c-31 -37 -221 -494 -210 -504 7 -7 214 99 266 136 51 37
51 43 6 224 -35 145 -45 166 -62 144z"/>
<path d="M5658 3174 c14 -25 67 -74 81 -74 6 0 11 -4 11 -9 0 -12 99 -91 114
-91 6 0 4 6 -5 13 -9 7 -19 25 -23 40 -3 15 -11 25 -16 22 -6 -3 -10 1 -10 9
0 9 -4 16 -8 16 -5 0 -8 10 -8 21 1 25 -51 57 -109 66 -34 6 -36 5 -27 -13z"/>
<path d="M5820 3124 c0 -14 44 -94 52 -94 21 0 0 75 -26 92 -14 9 -26 10 -26
2z"/>
<path d="M2475 2910 c-230 -53 -245 -57 -245 -79 0 -30 179 -302 198 -301 7 1
20 19 127 175 65 94 145 226 145 238 0 14 -57 5 -225 -33z"/>
<path d="M2753 2898 c-23 -26 -174 -244 -246 -356 l-47 -73 96 -142 c256 -375
319 -452 462 -565 116 -91 212 -155 220 -147 15 14 -431 1295 -454 1302 -5 2
-19 -7 -31 -19z"/>
<path d="M3970 2414 c-178 -93 -316 -169 -394 -217 l-49 -31 6 -411 c4 -225
10 -436 13 -467 l7 -58 36 0 c79 0 90 19 306 565 162 409 265 678 265 694 0
21 -25 11 -190 -75z"/>
<path d="M2376 2346 c-28 -38 -46 -73 -42 -81 3 -8 18 -23 33 -32 15 -10 71
-50 123 -89 124 -92 209 -148 215 -142 7 6 -198 308 -262 387 l-20 24 -47 -67z"/>
<path d="M3000 1693 c0 -19 389 -595 428 -633 25 -25 -67 260 -118 366 -38 79
-43 84 -147 161 -132 98 -163 118 -163 106z"/>
<path d="M3550 1140 c-14 -25 -9 -152 6 -157 11 -4 70 114 76 152 2 17 -3 21
-34 23 -29 2 -39 -1 -48 -18z"/>
<path d="M3700 1113 c-30 -46 -39 -83 -21 -83 14 0 81 95 81 114 0 31 -31 15
-60 -31z"/>
<path d="M5997 5211 c-3 -14 -1 -18 9 -14 16 6 18 19 5 27 -5 3 -11 -3 -14
-13z"/>
<path d="M6261 2294 c0 -11 3 -14 6 -6 3 7 2 16 -1 19 -3 4 -6 -2 -5 -13z"/>
<path d="M5525 2400 c3 -5 10 -10 16 -10 5 0 9 5 9 10 0 6 -7 10 -16 10 -8 0
-12 -4 -9 -10z"/>
<path d="M5955 2290 c3 -5 8 -10 11 -10 2 0 4 5 4 10 0 6 -5 10 -11 10 -5 0
-7 -4 -4 -10z"/>
<path d="M5885 2280 c4 -6 11 -8 16 -5 14 9 11 15 -7 15 -8 0 -12 -5 -9 -10z"/>
<path d="M5920 2250 c-12 -8 -11 -10 8 -10 12 0 22 5 22 10 0 13 -11 13 -30 0z"/>
<path d="M1847 913 c-15 -14 -6 -53 15 -67 30 -21 51 -20 79 4 l24 20 -28 25
c-26 23 -75 33 -90 18z"/>
<path d="M6429 426 c6 -7 9 -20 6 -28 -4 -9 1 -18 9 -21 20 -8 22 33 4 51 -17
17 -33 15 -19 -2z"/>
<path d="M2370 6986 c0 -8 5 -18 10 -21 6 -3 10 3 10 14 0 12 -4 21 -10 21 -5
0 -10 -6 -10 -14z"/>
<path d="M6220 6990 c0 -5 4 -10 9 -10 6 0 13 5 16 10 3 6 -1 10 -9 10 -9 0
-16 -4 -16 -10z"/>
<path d="M6412 6988 c6 -16 36 -34 44 -26 3 4 4 14 1 23 -7 17 -51 21 -45 3z"/>
<path d="M2390 6940 c0 -5 5 -10 10 -10 6 0 10 5 10 10 0 6 -4 10 -10 10 -5 0
-10 -4 -10 -10z"/>
<path d="M6520 6931 c0 -11 50 -24 58 -16 8 8 -19 25 -40 25 -10 0 -18 -4 -18
-9z"/>
<path d="M6185 6899 c-4 -6 -5 -12 -2 -15 2 -3 7 2 10 11 7 17 1 20 -8 4z"/>
<path d="M6373 6734 c-15 -15 -17 -34 -4 -34 8 0 24 41 18 46 -1 1 -8 -4 -14
-12z"/>
<path d="M6910 3690 c0 -6 14 -24 30 -42 17 -17 30 -36 30 -43 0 -7 7 -18 15
-25 13 -11 15 -6 15 34 0 43 -2 47 -40 66 -45 23 -50 24 -50 10z"/>
<path d="M6940 3592 c0 -19 19 -52 30 -52 16 0 12 16 -10 41 -11 14 -19 18
-20 11z"/>
<path d="M6985 3511 c-3 -6 -10 -9 -15 -6 -5 3 -11 1 -14 -4 -4 -5 -2 -12 4
-16 11 -7 46 22 37 31 -3 3 -8 0 -12 -5z"/>
<path d="M6915 3480 c4 -6 11 -8 16 -5 14 9 11 15 -7 15 -8 0 -12 -5 -9 -10z"/>
<path d="M6940 1104 c0 -8 5 -12 10 -9 6 3 10 10 10 16 0 5 -4 9 -10 9 -5 0
-10 -7 -10 -16z"/>
<path d="M6006 21 c-4 -7 -5 -15 -2 -18 9 -9 19 4 14 18 -4 11 -6 11 -12 0z"/>
</g>
</svg>
