<svg viewBox="0 0 38 38" fill="none" xmlns="http://www.w3.org/2000/svg">
<path d="M37.9992 18.9992C38.0356 23.0188 36.7585 26.9404 34.3623 30.1679C32.0543 33.3921 28.7793 35.7973 25.0121 37.0346C24.8465 37.0808 24.6726 37.0889 24.5034 37.0584C24.3342 37.0278 24.1741 36.9594 24.0351 36.8582C23.9345 36.7626 23.8557 36.6464 23.8042 36.5176C23.7527 36.3888 23.7296 36.2504 23.7365 36.1118V30.9007C23.7907 30.2563 23.7034 29.6078 23.4807 29.0007C23.258 28.3935 22.9053 27.8424 22.4473 27.3859C23.2981 27.3025 24.1417 27.1573 24.9714 26.9516C25.7859 26.7332 26.5666 26.4044 27.292 25.9745C28.0521 25.56 28.7285 25.0078 29.2869 24.3461C29.9001 23.5713 30.3607 22.6871 30.644 21.7405C31.004 20.5299 31.1779 19.2715 31.1596 18.0086C31.202 16.1189 30.4945 14.2892 29.1919 12.9196C29.495 12.1072 29.6343 11.2429 29.6017 10.3764C29.5691 9.51 29.3652 8.65858 29.0019 7.8713C28.325 7.74788 27.6264 7.84293 27.007 8.14271C26.213 8.42822 25.4493 8.79189 24.7272 9.22837L23.7908 9.8119C20.6839 8.94335 17.3983 8.94335 14.2913 9.8119C14.0199 9.62191 13.6807 9.41835 13.2464 9.14694C12.5704 8.75291 11.8622 8.41696 11.1294 8.14271C10.4723 7.80907 9.72698 7.69039 8.99878 7.80345C8.63648 8.59852 8.43442 9.45719 8.40415 10.3304C8.37388 11.2036 8.51599 12.0742 8.82236 12.8924C7.5379 14.2834 6.83813 16.1155 6.86819 18.0086C6.84884 19.2627 7.02277 20.5122 7.38387 21.7134C7.67834 22.6554 8.13784 23.5376 8.74094 24.3189C9.28692 25.0002 9.9656 25.5635 10.7358 25.9745C11.4707 26.3852 12.2491 26.7129 13.0564 26.9516C13.8905 27.1583 14.7387 27.3034 15.5941 27.3859C14.8838 28.0548 14.4484 28.9644 14.3728 29.9372C14.0157 30.1071 13.6366 30.2259 13.2464 30.29C12.799 30.3741 12.3446 30.415 11.8893 30.4121C11.2659 30.4161 10.6574 30.2212 10.1523 29.8557C9.58986 29.4481 9.12611 28.9194 8.79522 28.3087C8.49575 27.7971 8.08818 27.3572 7.601 27.0195C7.23795 26.7407 6.82262 26.5377 6.37965 26.4224H5.8911C5.64642 26.4082 5.40146 26.4452 5.17186 26.5309C5.03615 26.6124 4.99544 26.7074 5.04972 26.8159C5.11397 26.9371 5.19133 27.0509 5.28042 27.1552C5.37872 27.2694 5.48779 27.374 5.60612 27.4673L5.78254 27.5759C6.20846 27.805 6.57903 28.1246 6.86819 28.5122C7.17107 28.8988 7.43047 29.3175 7.64172 29.7607L7.88599 30.3307C8.07853 30.9429 8.45824 31.4792 8.97164 31.8642C9.45996 32.2181 10.0208 32.4592 10.6137 32.5699C11.176 32.6876 11.7491 32.7467 12.3236 32.7463C12.7779 32.7546 13.232 32.7228 13.6807 32.6513L14.2506 32.5563V36.1118C14.2532 36.2523 14.2254 36.3917 14.1692 36.5206C14.113 36.6494 14.0297 36.7645 13.9249 36.8582C13.783 36.9588 13.6206 37.0267 13.4493 37.0572C13.2781 37.0877 13.1022 37.08 12.9343 37.0346C9.17879 35.7814 5.92186 33.3613 3.63838 30.1272C1.2298 26.9216 -0.0491162 23.0085 0.00144346 18.9992C-0.0183747 15.6609 0.863036 12.379 2.55272 9.49978C4.2122 6.60897 6.61008 4.21108 9.50089 2.55161C12.3801 0.861919 15.662 -0.0194912 19.0003 0.000326977C22.3387 -0.0194912 25.6206 0.861919 28.4998 2.55161C31.3906 4.21108 33.7885 6.60897 35.448 9.49978C37.1389 12.3785 38.0204 15.6607 37.9992 18.9992Z"/>
</svg>
