<svg viewBox="0 0 38 38" fill="none" xmlns="http://www.w3.org/2000/svg">
<path d="M19 0C29.5094 0 38 8.49062 38 19C38 29.5094 29.5094 38 19 38C8.49062 38 0 29.5094 0 19C0 8.49062 8.49062 0 19 0ZM29.925 20.5437C29.925 16.5062 27.7875 14.6063 24.8781 14.6063C22.5625 14.6063 21.4938 15.9125 20.9 16.8031V14.9625H16.5062C16.5656 16.2094 16.5062 28.1438 16.5062 28.1438H20.9V20.7219C20.9 20.3063 20.9594 19.95 21.0188 19.6531C21.3156 18.8812 22.0281 18.05 23.275 18.05C24.8781 18.05 25.4719 19.2375 25.4719 21.0188V28.0844H29.8656V20.5437H29.925ZM11.9344 8.55C10.45 8.55 9.44062 9.55938 9.44062 10.8063C9.44062 12.0531 10.3906 13.0625 11.875 13.0625C13.4187 13.0625 14.3688 12.0531 14.3688 10.8063C14.3688 9.5 13.4188 8.55 11.9344 8.55V8.55ZM9.7375 28.0844H14.1312V14.9031H9.7375V28.0844V28.0844Z"/>
</svg>
